<?xml version="1.0" standalone="no"?>
<!DOCTYPE svg PUBLIC "-//W3C//DTD SVG 20010904//EN"
 "http://www.w3.org/TR/2001/REC-SVG-20010904/DTD/svg10.dtd">
<svg version="1.0" xmlns="http://www.w3.org/2000/svg"
 width="303.000000pt" height="307.000000pt" viewBox="0 0 303.000000 307.000000"
 preserveAspectRatio="xMidYMid meet">

<g transform="translate(0.000000,307.000000) scale(0.100000,-0.100000)"
fill="#000000" stroke="none">
<path d="M0 1535 l0 -1535 1515 0 1515 0 0 1535 0 1535 -1515 0 -1515 0 0
-1535z m1504 469 c9 -8 16 -22 16 -29 0 -13 -26 -45 -36 -45 -39 0 -59 60 -26
79 23 14 28 14 46 -5z m377 6 c11 -6 19 -21 19 -35 0 -20 -24 -45 -44 -45 -10
0 -36 32 -36 45 0 13 26 45 36 45 3 0 14 -5 25 -10z m393 -6 c9 -8 16 -22 16
-29 0 -17 -27 -45 -44 -45 -19 0 -36 22 -36 45 0 41 36 58 64 29z m222 -240
c19 -41 34 -77 34 -80 0 -2 -9 -4 -19 -4 -11 0 -23 -5 -26 -11 -4 -5 -20 -9
-36 -7 -23 2 -61 -19 -189 -107 -88 -60 -160 -115 -160 -122 0 -20 -32 -44
-55 -41 -28 4 -335 -177 -335 -197 0 -20 -32 -35 -59 -28 -33 8 -311 -95 -335
-125 -14 -17 -25 -22 -42 -18 -33 9 -292 -114 -317 -149 -36 -48 -104 -16 -76
36 8 16 18 20 42 16 42 -6 292 113 326 155 19 24 28 28 52 23 40 -9 306 88
334 121 13 16 29 24 46 22 29 -2 329 169 329 189 0 17 38 41 58 37 10 -2 81
42 162 99 l145 102 40 83 c21 45 41 82 43 82 2 0 19 -34 38 -76z m-992 -40 c9
-8 16 -22 16 -29 0 -17 -27 -45 -44 -45 -19 0 -36 22 -36 45 0 41 36 58 64 29z
m377 6 c11 -6 19 -21 19 -35 0 -20 -24 -45 -44 -45 -10 0 -36 32 -36 45 0 13
26 45 36 45 3 0 14 -5 25 -10z m393 -6 c9 -8 16 -22 16 -29 0 -13 -26 -45 -36
-45 -39 0 -59 60 -26 79 23 14 28 14 46 -5z m-770 -280 c9 -8 16 -22 16 -29 0
-13 -26 -45 -36 -45 -39 0 -59 60 -26 79 23 14 28 14 46 -5z m377 6 c11 -6 19
-21 19 -35 0 -20 -24 -45 -44 -45 -10 0 -36 32 -36 45 0 13 26 45 36 45 3 0
14 -5 25 -10z m393 -6 c9 -8 16 -22 16 -29 0 -13 -26 -45 -36 -45 -39 0 -59
60 -26 79 23 14 28 14 46 -5z"/>
</g>
</svg>
